<svg xmlns="http://www.w3.org/2000/svg" width="16.67" height="15.424" viewBox="0 0 16.67 15.424">
  <g id="Group_42" data-name="Group 42" transform="translate(-1391 -188.428)">
    <g id="Ellipse_33" data-name="Ellipse 33" transform="translate(1395 188.428)" fill="none" stroke="#707070" stroke-width="1.2">
      <circle cx="4" cy="4" r="4" stroke="none"/>
      <circle cx="4" cy="4" r="3.4" fill="none"/>
    </g>
    <g id="Path_29" data-name="Path 29" transform="translate(1391 195.517)" fill="none">
      <path d="M8.335,0A8.335,8.335,0,0,1,16.67,8.335H0A8.335,8.335,0,0,1,8.335,0Z" stroke="none"/>
      <path d="M 8.335229873657227 1.199995040893555 C 4.80980110168457 1.199995040893555 1.873284339904785 3.770322322845459 1.300924301147461 7.13522481918335 L 15.36953544616699 7.13522481918335 C 14.79717540740967 3.770322322845459 11.86065864562988 1.199995040893555 8.335229873657227 1.199995040893555 M 8.335229873657227 -4.76837158203125e-06 C 12.93865013122559 -4.76837158203125e-06 16.67045974731445 3.731804847717285 16.67045974731445 8.335225105285645 C 13.09358024597168 8.335225105285645 5.006649971008301 8.335225105285645 0 8.335225105285645 C 0 3.731804847717285 3.731809616088867 -4.76837158203125e-06 8.335229873657227 -4.76837158203125e-06 Z" stroke="none" fill="#707070"/>
    </g>
  </g>
</svg>
